<svg xmlns="http://www.w3.org/2000/svg" width="35.534" height="26.651" viewBox="0 0 35.534 26.651">
  <path id="Icon_metro-profile" data-name="Icon metro-profile" d="M37.495,11.519H35.01V7.791l-5.13-.079.027,3.807H14.493L14.6,7.712l-5.023.079V11.6l-2.538-.079A2.539,2.539,0,0,0,4.5,14.058V31.825a2.539,2.539,0,0,0,2.538,2.538H37.495a2.539,2.539,0,0,0,2.538-2.538V14.058A2.539,2.539,0,0,0,37.495,11.519ZM31.15,8.981h2.538v5.076H31.15Zm-16.5,8.645c1.533,0,2.777,1.633,2.777,3.649s-1.244,3.649-2.777,3.649-2.777-1.633-2.777-3.649,1.244-3.649,2.777-3.649ZM10.844,8.981h2.538v5.076H10.844ZM9.152,29.221s.3-2.414.985-2.869a9.733,9.733,0,0,1,2.652-.759s1.277,1.364,1.82,1.364,1.819-1.364,1.819-1.364a9.7,9.7,0,0,1,2.654.759c.8.536,1,2.869,1,2.869H9.152Zm25.8-1.2H23.535V26.748H34.957Zm0-2.538H23.535V24.21H34.957Zm0-2.538H23.535V21.672H34.957Zm0-2.538H23.535V19.134H34.957Z" transform="translate(-4.499 -7.712)"/>
</svg>
