<svg xmlns="http://www.w3.org/2000/svg" width="33.527" height="28.163" viewBox="0 0 33.527 28.163">
  <path id="Icon_ionic-md-heart-empty" data-name="Icon ionic-md-heart-empty" d="M27.682,4.5a10.334,10.334,0,0,0-7.544,3.22A10.334,10.334,0,0,0,12.595,4.5c-5.2,0-9.22,3.682-9.22,8.442,0,5.831,5.7,10.51,14.33,17.726l2.434,1.995,2.434-1.995C31.2,23.451,36.9,18.772,36.9,12.942,36.9,8.182,32.88,4.5,27.682,4.5ZM21.17,28.651l-.338.286-.693.572-.693-.572-.338-.286A98.389,98.389,0,0,1,9.218,19.7c-2.257-2.545-3.256-4.628-3.256-6.762a5.824,5.824,0,0,1,1.91-4.349,6.908,6.908,0,0,1,4.723-1.746A7.7,7.7,0,0,1,18.164,9.23l1.975,2.134L22.113,9.23a7.675,7.675,0,0,1,5.569-2.384,6.943,6.943,0,0,1,4.731,1.746,5.835,5.835,0,0,1,1.91,4.349c0,2.127-1.007,4.217-3.256,6.762A98.6,98.6,0,0,1,21.17,28.651Z" transform="translate(-3.375 -4.5)"/>
</svg>
